<?xml version="1.0" ?><!DOCTYPE svg  PUBLIC '-//W3C//DTD SVG 1.1//EN'  'http://www.w3.org/Graphics/SVG/1.1/DTD/svg11.dtd'><svg enable-background="new 0 0 44 44" height="44px" id="Layer_1" version="1.1" viewBox="0 0 44 44" width="44px" xml:space="preserve" xmlns="http://www.w3.org/2000/svg" xmlns:xlink="http://www.w3.org/1999/xlink"><path d="M22,0C9.85,0,0,9.85,0,22s9.85,22,22,22s22-9.85,22-22S34.15,0,22,0z M40.281,16.888l-10.07,1.439  c-0.756-1.688-2.018-3.096-3.591-4.041l1.467-10.269C33.991,6.022,38.59,10.848,40.281,16.888z M22,28c-3.309,0-6-2.691-6-6  s2.691-6,6-6s6,2.691,6,6S25.309,28,22,28z M16.63,3.785l1.446,10.125c-1.854,0.901-3.348,2.415-4.223,4.284l-10.1-1.443  C5.547,10.531,10.428,5.617,16.63,3.785z M4.062,28.205l10.295-1.471c0.921,1.484,2.259,2.678,3.854,3.42L16.768,40.25  C10.824,38.543,6.077,34.014,4.062,28.205z M27.951,40.031l-1.463-10.238c1.333-0.77,2.446-1.869,3.235-3.189l10.265,1.467  C38.08,33.707,33.604,38.16,27.951,40.031z" fill="#4AACC9"/></svg>